# xmcd CD database file
#
# Track frame offsets:
#	150
#	20557
#	45774
#	75366
#	97621
#	111887
#	138009
#	162132
#	187210
#	221062
#
# Disc length: 3154 seconds
#
# Revision: 0
# Processed by: cddbd v1.5.2PL0 Copyright (c) Steve Scherf et al.
# Submitted via: CDex 1.94
#
DISCID=710c500a
DTITLE=Atlanta Roots - Mid-Life Crisis
DYEAR=1991
DGENRE=Blues
TTITLE0=For Sometime
TTITLE1=Peace of Mind
TTITLE2=I Don't Need Your Love
TTITLE3=You've Got To Learn
TTITLE4=Things Have Got To Change
TTITLE5=On The Street
TTITLE6=Sporting Life
TTITLE7=Crossroads
TTITLE8=Smith and Wesson Blues
TTITLE9=Louie Louie
EXTD=YEAR: 1991
EXTT0=
EXTT1=
EXTT2=
EXTT3=
EXTT4=
EXTT5=
EXTT6=
EXTT7=
EXTT8=
EXTT9=
PLAYORDER=
